<mxfile host="app.diagrams.net" agent="Mozilla/5.0 (Macintosh; Intel Mac OS X 10_15_7) AppleWebKit/605.1.15 (KHTML, like Gecko) Version/26.0.1 Safari/605.1.15" version="28.2.5">
  <diagram name="Page-1" id="oa7Ax4bvNen8sbCRx8UZ">
    <mxGraphModel dx="2487" dy="2389" grid="1" gridSize="10" guides="1" tooltips="1" connect="1" arrows="1" fold="1" page="1" pageScale="1" pageWidth="827" pageHeight="1169" math="0" shadow="0">
      <root>
        <mxCell id="0" />
        <mxCell id="1" parent="0" />
        <mxCell id="cosI2YoFCvBsnNAfuXDV-8" value="" style="shape=cylinder3;whiteSpace=wrap;html=1;boundedLbl=1;backgroundOutline=1;size=15;" vertex="1" parent="1">
          <mxGeometry x="1145" y="1230" width="160" height="90" as="geometry" />
        </mxCell>
        <mxCell id="be9cKzh3v3ybvfWHn4TE-160" value="" style="rounded=0;whiteSpace=wrap;html=1;" parent="1" vertex="1">
          <mxGeometry x="-20" y="545" width="190" height="155" as="geometry" />
        </mxCell>
        <mxCell id="cN7Whux2MFCGXLR-pMKE-6" value="Relational DB" style="text;html=1;align=center;verticalAlign=middle;whiteSpace=wrap;rounded=0;" parent="1" vertex="1">
          <mxGeometry x="1195" y="1270" width="60" height="30" as="geometry" />
        </mxCell>
        <mxCell id="be9cKzh3v3ybvfWHn4TE-1" value="" style="rounded=0;whiteSpace=wrap;html=1;" parent="1" vertex="1">
          <mxGeometry x="-60" y="215" width="340" height="580" as="geometry" />
        </mxCell>
        <mxCell id="be9cKzh3v3ybvfWHn4TE-2" value="Frontend" style="text;html=1;align=center;verticalAlign=middle;whiteSpace=wrap;rounded=0;" parent="1" vertex="1">
          <mxGeometry x="-60" y="215" width="105" height="45" as="geometry" />
        </mxCell>
        <mxCell id="be9cKzh3v3ybvfWHn4TE-3" value="" style="rounded=0;whiteSpace=wrap;html=1;" parent="1" vertex="1">
          <mxGeometry x="570" y="-50" width="1310" height="1110" as="geometry" />
        </mxCell>
        <mxCell id="be9cKzh3v3ybvfWHn4TE-4" value="&lt;font size=&quot;3&quot;&gt;Backend&lt;/font&gt;" style="text;html=1;align=center;verticalAlign=middle;whiteSpace=wrap;rounded=0;" parent="1" vertex="1">
          <mxGeometry x="570" y="-50" width="160" height="50" as="geometry" />
        </mxCell>
        <mxCell id="be9cKzh3v3ybvfWHn4TE-5" value="" style="rounded=0;whiteSpace=wrap;html=1;" parent="1" vertex="1">
          <mxGeometry x="2370" y="434.38" width="379.5" height="141.25" as="geometry" />
        </mxCell>
        <mxCell id="be9cKzh3v3ybvfWHn4TE-6" value="&lt;font size=&quot;3&quot;&gt;Raspberry&lt;/font&gt;" style="text;html=1;align=center;verticalAlign=middle;whiteSpace=wrap;rounded=0;" parent="1" vertex="1">
          <mxGeometry x="2444.75" y="434.38" width="230" height="50" as="geometry" />
        </mxCell>
        <mxCell id="be9cKzh3v3ybvfWHn4TE-7" value="" style="endArrow=classic;html=1;rounded=0;exitX=0;exitY=0.5;exitDx=0;exitDy=0;entryX=1;entryY=0.5;entryDx=0;entryDy=0;" parent="1" source="be9cKzh3v3ybvfWHn4TE-11" target="be9cKzh3v3ybvfWHn4TE-3" edge="1">
          <mxGeometry width="50" height="50" relative="1" as="geometry">
            <mxPoint x="760" y="210" as="sourcePoint" />
            <mxPoint x="1880" y="390" as="targetPoint" />
          </mxGeometry>
        </mxCell>
        <mxCell id="be9cKzh3v3ybvfWHn4TE-13" value="" style="endArrow=classic;html=1;rounded=0;entryX=1;entryY=0.5;entryDx=0;entryDy=0;exitX=0;exitY=0.5;exitDx=0;exitDy=0;" parent="1" source="be9cKzh3v3ybvfWHn4TE-5" target="be9cKzh3v3ybvfWHn4TE-11" edge="1">
          <mxGeometry width="50" height="50" relative="1" as="geometry">
            <mxPoint x="2340" y="505" as="sourcePoint" />
            <mxPoint x="2790" y="516.73" as="targetPoint" />
          </mxGeometry>
        </mxCell>
        <mxCell id="be9cKzh3v3ybvfWHn4TE-18" value="" style="endArrow=classic;startArrow=classic;html=1;rounded=0;exitX=1;exitY=0.5;exitDx=0;exitDy=0;entryX=0;entryY=0.5;entryDx=0;entryDy=0;" parent="1" source="be9cKzh3v3ybvfWHn4TE-1" target="be9cKzh3v3ybvfWHn4TE-3" edge="1">
          <mxGeometry width="50" height="50" relative="1" as="geometry">
            <mxPoint x="360" y="330" as="sourcePoint" />
            <mxPoint x="410" y="280" as="targetPoint" />
          </mxGeometry>
        </mxCell>
        <mxCell id="be9cKzh3v3ybvfWHn4TE-24" value="Admin" style="shape=umlActor;verticalLabelPosition=bottom;verticalAlign=top;html=1;outlineConnect=0;" parent="1" vertex="1">
          <mxGeometry x="-190" y="320" width="30" height="60" as="geometry" />
        </mxCell>
        <mxCell id="be9cKzh3v3ybvfWHn4TE-27" value="Normal User" style="shape=umlActor;verticalLabelPosition=bottom;verticalAlign=top;html=1;outlineConnect=0;" parent="1" vertex="1">
          <mxGeometry x="-190" y="610" width="30" height="60" as="geometry" />
        </mxCell>
        <mxCell id="be9cKzh3v3ybvfWHn4TE-64" value="" style="group" parent="1" vertex="1" connectable="0">
          <mxGeometry x="2010" y="465" width="200" height="80" as="geometry" />
        </mxCell>
        <mxCell id="be9cKzh3v3ybvfWHn4TE-11" value="" style="rounded=0;whiteSpace=wrap;html=1;" parent="be9cKzh3v3ybvfWHn4TE-64" vertex="1">
          <mxGeometry width="200" height="80" as="geometry" />
        </mxCell>
        <mxCell id="be9cKzh3v3ybvfWHn4TE-12" value="Broker&lt;div&gt;MQTT&lt;/div&gt;" style="text;html=1;align=center;verticalAlign=middle;whiteSpace=wrap;rounded=0;" parent="be9cKzh3v3ybvfWHn4TE-64" vertex="1">
          <mxGeometry x="33.333333333333336" y="25" width="133.33333333333334" height="30" as="geometry" />
        </mxCell>
        <mxCell id="be9cKzh3v3ybvfWHn4TE-81" value="" style="group" parent="1" vertex="1" connectable="0">
          <mxGeometry x="970" y="150" width="880" height="540" as="geometry" />
        </mxCell>
        <mxCell id="be9cKzh3v3ybvfWHn4TE-72" value="" style="group;fillColor=#dae8fc;strokeColor=#6c8ebf;" parent="be9cKzh3v3ybvfWHn4TE-81" vertex="1" connectable="0">
          <mxGeometry x="610" y="230" width="270" height="250" as="geometry" />
        </mxCell>
        <mxCell id="be9cKzh3v3ybvfWHn4TE-67" value="" style="rounded=0;whiteSpace=wrap;html=1;rotation=0;gradientColor=none;fillColor=none;" parent="be9cKzh3v3ybvfWHn4TE-72" vertex="1">
          <mxGeometry width="270" height="250" as="geometry" />
        </mxCell>
        <mxCell id="be9cKzh3v3ybvfWHn4TE-70" value="Data ingestion" style="text;html=1;align=center;verticalAlign=middle;whiteSpace=wrap;rounded=0;" parent="be9cKzh3v3ybvfWHn4TE-72" vertex="1">
          <mxGeometry width="100" height="30" as="geometry" />
        </mxCell>
        <mxCell id="be9cKzh3v3ybvfWHn4TE-75" value="" style="rounded=0;whiteSpace=wrap;html=1;" parent="be9cKzh3v3ybvfWHn4TE-72" vertex="1">
          <mxGeometry x="20" y="40" width="120" height="60" as="geometry" />
        </mxCell>
        <mxCell id="be9cKzh3v3ybvfWHn4TE-76" value="MQTT message handler" style="text;html=1;align=center;verticalAlign=middle;whiteSpace=wrap;rounded=0;" parent="be9cKzh3v3ybvfWHn4TE-72" vertex="1">
          <mxGeometry x="20" y="40" width="120" height="60" as="geometry" />
        </mxCell>
        <mxCell id="be9cKzh3v3ybvfWHn4TE-79" value="" style="rounded=0;whiteSpace=wrap;html=1;" parent="be9cKzh3v3ybvfWHn4TE-72" vertex="1">
          <mxGeometry x="20" y="180" width="120" height="60" as="geometry" />
        </mxCell>
        <mxCell id="be9cKzh3v3ybvfWHn4TE-78" value="Rate limiting" style="text;html=1;align=center;verticalAlign=middle;whiteSpace=wrap;rounded=0;" parent="be9cKzh3v3ybvfWHn4TE-72" vertex="1">
          <mxGeometry x="20" y="180" width="120" height="60" as="geometry" />
        </mxCell>
        <mxCell id="be9cKzh3v3ybvfWHn4TE-80" value="" style="rounded=0;whiteSpace=wrap;html=1;" parent="be9cKzh3v3ybvfWHn4TE-72" vertex="1">
          <mxGeometry x="140" y="110" width="120" height="60" as="geometry" />
        </mxCell>
        <mxCell id="be9cKzh3v3ybvfWHn4TE-77" value="Data validation and sanitation&lt;span style=&quot;caret-color: rgba(0, 0, 0, 0); color: rgba(0, 0, 0, 0); font-family: monospace; font-size: 0px; text-align: start; white-space: nowrap;&quot;&gt;%3CmxGraphModel%3E%3Croot%3E%3CmxCell%20id%3D%220%22%2F%3E%3CmxCell%20id%3D%221%22%20parent%3D%220%22%2F%3E%3CmxCell%20id%3D%222%22%20value%3D%22MQTT%20message%20handler%22%20style%3D%22text%3Bhtml%3D1%3Balign%3Dcenter%3BverticalAlign%3Dmiddle%3BwhiteSpace%3Dwrap%3Brounded%3D0%3B%22%20vertex%3D%221%22%20parent%3D%221%22%3E%3CmxGeometry%20x%3D%221980%22%20y%3D%2250%22%20width%3D%22120%22%20height%3D%2260%22%20as%3D%22geometry%22%2F%3E%3C%2FmxCell%3E%3C%2Froot%3E%3C%2FmxGraphModel%3E&lt;/span&gt;" style="text;html=1;align=center;verticalAlign=middle;whiteSpace=wrap;rounded=0;" parent="be9cKzh3v3ybvfWHn4TE-72" vertex="1">
          <mxGeometry x="140" y="110" width="120" height="60" as="geometry" />
        </mxCell>
        <mxCell id="be9cKzh3v3ybvfWHn4TE-105" value="" style="group;fillColor=#f8cecc;strokeColor=#b85450;" parent="1" vertex="1" connectable="0">
          <mxGeometry x="620" y="80" width="270" height="250" as="geometry" />
        </mxCell>
        <mxCell id="be9cKzh3v3ybvfWHn4TE-106" value="" style="rounded=0;whiteSpace=wrap;html=1;rotation=0;gradientColor=none;fillColor=none;" parent="be9cKzh3v3ybvfWHn4TE-105" vertex="1">
          <mxGeometry width="270" height="250" as="geometry" />
        </mxCell>
        <mxCell id="be9cKzh3v3ybvfWHn4TE-107" value="Alert Engine" style="text;html=1;align=center;verticalAlign=middle;whiteSpace=wrap;rounded=0;" parent="be9cKzh3v3ybvfWHn4TE-105" vertex="1">
          <mxGeometry width="100" height="30" as="geometry" />
        </mxCell>
        <mxCell id="be9cKzh3v3ybvfWHn4TE-108" value="" style="rounded=0;whiteSpace=wrap;html=1;" parent="be9cKzh3v3ybvfWHn4TE-105" vertex="1">
          <mxGeometry x="20" y="40" width="120" height="60" as="geometry" />
        </mxCell>
        <mxCell id="be9cKzh3v3ybvfWHn4TE-109" value="Rule Manager" style="text;html=1;align=center;verticalAlign=middle;whiteSpace=wrap;rounded=0;" parent="be9cKzh3v3ybvfWHn4TE-105" vertex="1">
          <mxGeometry x="20" y="40" width="120" height="60" as="geometry" />
        </mxCell>
        <mxCell id="be9cKzh3v3ybvfWHn4TE-110" value="" style="rounded=0;whiteSpace=wrap;html=1;" parent="be9cKzh3v3ybvfWHn4TE-105" vertex="1">
          <mxGeometry x="20" y="180" width="120" height="60" as="geometry" />
        </mxCell>
        <mxCell id="be9cKzh3v3ybvfWHn4TE-111" value="Notification Dispatcher" style="text;html=1;align=center;verticalAlign=middle;whiteSpace=wrap;rounded=0;" parent="be9cKzh3v3ybvfWHn4TE-105" vertex="1">
          <mxGeometry x="20" y="180" width="120" height="60" as="geometry" />
        </mxCell>
        <mxCell id="be9cKzh3v3ybvfWHn4TE-112" value="" style="rounded=0;whiteSpace=wrap;html=1;" parent="be9cKzh3v3ybvfWHn4TE-105" vertex="1">
          <mxGeometry x="140" y="110" width="120" height="60" as="geometry" />
        </mxCell>
        <mxCell id="be9cKzh3v3ybvfWHn4TE-113" value="Threshold Calculator" style="text;html=1;align=center;verticalAlign=middle;whiteSpace=wrap;rounded=0;" parent="be9cKzh3v3ybvfWHn4TE-105" vertex="1">
          <mxGeometry x="140" y="110" width="120" height="60" as="geometry" />
        </mxCell>
        <mxCell id="be9cKzh3v3ybvfWHn4TE-114" value="" style="group;fillColor=#dae8fc;strokeColor=#6c8ebf;" parent="1" vertex="1" connectable="0">
          <mxGeometry x="620" y="395" width="270" height="250" as="geometry" />
        </mxCell>
        <mxCell id="be9cKzh3v3ybvfWHn4TE-115" value="" style="rounded=0;whiteSpace=wrap;html=1;rotation=0;fillColor=#d5e8d4;strokeColor=#82b366;" parent="be9cKzh3v3ybvfWHn4TE-114" vertex="1">
          <mxGeometry width="270" height="250" as="geometry" />
        </mxCell>
        <mxCell id="be9cKzh3v3ybvfWHn4TE-116" value="Analytics" style="text;html=1;align=center;verticalAlign=middle;whiteSpace=wrap;rounded=0;" parent="be9cKzh3v3ybvfWHn4TE-114" vertex="1">
          <mxGeometry width="100" height="30" as="geometry" />
        </mxCell>
        <mxCell id="be9cKzh3v3ybvfWHn4TE-117" value="" style="rounded=0;whiteSpace=wrap;html=1;" parent="be9cKzh3v3ybvfWHn4TE-114" vertex="1">
          <mxGeometry x="20" y="40" width="120" height="60" as="geometry" />
        </mxCell>
        <mxCell id="be9cKzh3v3ybvfWHn4TE-118" value="Trend analysis" style="text;html=1;align=center;verticalAlign=middle;whiteSpace=wrap;rounded=0;" parent="be9cKzh3v3ybvfWHn4TE-114" vertex="1">
          <mxGeometry x="20" y="40" width="120" height="60" as="geometry" />
        </mxCell>
        <mxCell id="be9cKzh3v3ybvfWHn4TE-119" value="" style="rounded=0;whiteSpace=wrap;html=1;" parent="be9cKzh3v3ybvfWHn4TE-114" vertex="1">
          <mxGeometry x="20" y="180" width="120" height="60" as="geometry" />
        </mxCell>
        <mxCell id="be9cKzh3v3ybvfWHn4TE-120" value="Report generation" style="text;html=1;align=center;verticalAlign=middle;whiteSpace=wrap;rounded=0;" parent="be9cKzh3v3ybvfWHn4TE-114" vertex="1">
          <mxGeometry x="20" y="180" width="120" height="60" as="geometry" />
        </mxCell>
        <mxCell id="be9cKzh3v3ybvfWHn4TE-121" value="" style="rounded=0;whiteSpace=wrap;html=1;" parent="be9cKzh3v3ybvfWHn4TE-114" vertex="1">
          <mxGeometry x="140" y="110" width="120" height="60" as="geometry" />
        </mxCell>
        <mxCell id="be9cKzh3v3ybvfWHn4TE-122" value="Statistical aggregation" style="text;html=1;align=center;verticalAlign=middle;whiteSpace=wrap;rounded=0;" parent="be9cKzh3v3ybvfWHn4TE-114" vertex="1">
          <mxGeometry x="140" y="110" width="120" height="60" as="geometry" />
        </mxCell>
        <mxCell id="be9cKzh3v3ybvfWHn4TE-124" value="" style="group;fillColor=#dae8fc;strokeColor=#6c8ebf;" parent="1" vertex="1" connectable="0">
          <mxGeometry x="620" y="710" width="270" height="250" as="geometry" />
        </mxCell>
        <mxCell id="be9cKzh3v3ybvfWHn4TE-125" value="" style="rounded=0;whiteSpace=wrap;html=1;rotation=0;fillColor=#e1d5e7;strokeColor=#9673a6;" parent="be9cKzh3v3ybvfWHn4TE-124" vertex="1">
          <mxGeometry width="270" height="250" as="geometry" />
        </mxCell>
        <mxCell id="be9cKzh3v3ybvfWHn4TE-126" value="User management" style="text;html=1;align=center;verticalAlign=middle;whiteSpace=wrap;rounded=0;" parent="be9cKzh3v3ybvfWHn4TE-124" vertex="1">
          <mxGeometry width="140" height="30" as="geometry" />
        </mxCell>
        <mxCell id="be9cKzh3v3ybvfWHn4TE-127" value="" style="rounded=0;whiteSpace=wrap;html=1;" parent="be9cKzh3v3ybvfWHn4TE-124" vertex="1">
          <mxGeometry x="10" y="40" width="120" height="180" as="geometry" />
        </mxCell>
        <mxCell id="be9cKzh3v3ybvfWHn4TE-128" value="Profile management" style="text;html=1;align=center;verticalAlign=middle;whiteSpace=wrap;rounded=0;" parent="be9cKzh3v3ybvfWHn4TE-124" vertex="1">
          <mxGeometry x="10" y="105" width="120" height="50" as="geometry" />
        </mxCell>
        <mxCell id="be9cKzh3v3ybvfWHn4TE-133" value="" style="rounded=0;whiteSpace=wrap;html=1;" parent="be9cKzh3v3ybvfWHn4TE-124" vertex="1">
          <mxGeometry x="140" y="40" width="120" height="180" as="geometry" />
        </mxCell>
        <mxCell id="be9cKzh3v3ybvfWHn4TE-134" value="Authentication" style="text;html=1;align=center;verticalAlign=middle;whiteSpace=wrap;rounded=0;" parent="be9cKzh3v3ybvfWHn4TE-124" vertex="1">
          <mxGeometry x="140" y="105" width="120" height="50" as="geometry" />
        </mxCell>
        <mxCell id="be9cKzh3v3ybvfWHn4TE-135" value="" style="shape=cylinder3;whiteSpace=wrap;html=1;boundedLbl=1;backgroundOutline=1;size=15;" parent="1" vertex="1">
          <mxGeometry x="1400" y="1230" width="160" height="90" as="geometry" />
        </mxCell>
        <mxCell id="be9cKzh3v3ybvfWHn4TE-136" value="time-series DB" style="text;html=1;align=center;verticalAlign=middle;whiteSpace=wrap;rounded=0;" parent="1" vertex="1">
          <mxGeometry x="1450" y="1270" width="60" height="30" as="geometry" />
        </mxCell>
        <mxCell id="be9cKzh3v3ybvfWHn4TE-137" value="" style="endArrow=classic;startArrow=classic;html=1;rounded=0;entryX=0.5;entryY=1;entryDx=0;entryDy=0;exitX=0.5;exitY=0;exitDx=0;exitDy=0;exitPerimeter=0;" parent="1" target="be9cKzh3v3ybvfWHn4TE-3" edge="1">
          <mxGeometry width="50" height="50" relative="1" as="geometry">
            <mxPoint x="1225" y="1230" as="sourcePoint" />
            <mxPoint x="1360" y="1060" as="targetPoint" />
          </mxGeometry>
        </mxCell>
        <mxCell id="be9cKzh3v3ybvfWHn4TE-138" value="" style="endArrow=classic;startArrow=classic;html=1;rounded=0;entryX=0.693;entryY=1;entryDx=0;entryDy=0;exitX=0.5;exitY=0;exitDx=0;exitDy=0;exitPerimeter=0;entryPerimeter=0;" parent="1" source="be9cKzh3v3ybvfWHn4TE-135" target="be9cKzh3v3ybvfWHn4TE-3" edge="1">
          <mxGeometry width="50" height="50" relative="1" as="geometry">
            <mxPoint x="1310" y="1110" as="sourcePoint" />
            <mxPoint x="1360" y="1060" as="targetPoint" />
          </mxGeometry>
        </mxCell>
        <mxCell id="be9cKzh3v3ybvfWHn4TE-103" value="" style="group;fillColor=none;strokeColor=none;" parent="1" vertex="1" connectable="0">
          <mxGeometry x="936" y="250" width="609" height="518.4000000000001" as="geometry" />
        </mxCell>
        <mxCell id="be9cKzh3v3ybvfWHn4TE-82" value="" style="rounded=0;whiteSpace=wrap;html=1;rotation=0;fillColor=#fff2cc;strokeColor=#d6b656;" parent="be9cKzh3v3ybvfWHn4TE-103" vertex="1">
          <mxGeometry width="609" height="518.4000000000001" as="geometry" />
        </mxCell>
        <mxCell id="be9cKzh3v3ybvfWHn4TE-92" value="" style="group" parent="be9cKzh3v3ybvfWHn4TE-103" vertex="1" connectable="0">
          <mxGeometry x="514.5" y="59.400000000000006" width="63" height="442.8" as="geometry" />
        </mxCell>
        <mxCell id="be9cKzh3v3ybvfWHn4TE-88" value="" style="rounded=0;whiteSpace=wrap;html=1;rotation=-90;" parent="be9cKzh3v3ybvfWHn4TE-92" vertex="1">
          <mxGeometry x="-183.75" y="189" width="430.5" height="64.80000000000001" as="geometry" />
        </mxCell>
        <mxCell id="be9cKzh3v3ybvfWHn4TE-89" value="Sensor Fusion" style="text;html=1;align=center;verticalAlign=middle;whiteSpace=wrap;rounded=0;rotation=-90;" parent="be9cKzh3v3ybvfWHn4TE-92" vertex="1">
          <mxGeometry x="-96.38999999999996" y="190.836" width="255.57000000000002" height="61.12800000000001" as="geometry" />
        </mxCell>
        <mxCell id="be9cKzh3v3ybvfWHn4TE-94" value="" style="group" parent="be9cKzh3v3ybvfWHn4TE-103" vertex="1" connectable="0">
          <mxGeometry x="388.5" y="59.400000000000006" width="63" height="442.8" as="geometry" />
        </mxCell>
        <mxCell id="be9cKzh3v3ybvfWHn4TE-95" value="" style="rounded=0;whiteSpace=wrap;html=1;rotation=-90;" parent="be9cKzh3v3ybvfWHn4TE-94" vertex="1">
          <mxGeometry x="-183.75" y="189" width="430.5" height="64.80000000000001" as="geometry" />
        </mxCell>
        <mxCell id="be9cKzh3v3ybvfWHn4TE-96" value="Posture Classification" style="text;html=1;align=center;verticalAlign=middle;whiteSpace=wrap;rounded=0;rotation=-90;" parent="be9cKzh3v3ybvfWHn4TE-94" vertex="1">
          <mxGeometry x="-96.38999999999996" y="190.836" width="255.57000000000002" height="61.12800000000001" as="geometry" />
        </mxCell>
        <mxCell id="be9cKzh3v3ybvfWHn4TE-97" value="" style="group" parent="be9cKzh3v3ybvfWHn4TE-103" vertex="1" connectable="0">
          <mxGeometry x="262.5" y="59.400000000000006" width="63" height="442.8" as="geometry" />
        </mxCell>
        <mxCell id="be9cKzh3v3ybvfWHn4TE-98" value="" style="rounded=0;whiteSpace=wrap;html=1;rotation=-90;" parent="be9cKzh3v3ybvfWHn4TE-97" vertex="1">
          <mxGeometry x="-183.75" y="189" width="430.5" height="64.80000000000001" as="geometry" />
        </mxCell>
        <mxCell id="be9cKzh3v3ybvfWHn4TE-99" value="Fatigue Analysis" style="text;html=1;align=center;verticalAlign=middle;whiteSpace=wrap;rounded=0;rotation=-90;" parent="be9cKzh3v3ybvfWHn4TE-97" vertex="1">
          <mxGeometry x="-96.38999999999996" y="190.836" width="255.57000000000002" height="61.12800000000001" as="geometry" />
        </mxCell>
        <mxCell id="be9cKzh3v3ybvfWHn4TE-100" value="" style="group" parent="be9cKzh3v3ybvfWHn4TE-103" vertex="1" connectable="0">
          <mxGeometry x="133.35000000000002" y="59.400000000000006" width="63" height="442.8" as="geometry" />
        </mxCell>
        <mxCell id="be9cKzh3v3ybvfWHn4TE-101" value="" style="rounded=0;whiteSpace=wrap;html=1;rotation=-90;" parent="be9cKzh3v3ybvfWHn4TE-100" vertex="1">
          <mxGeometry x="-183.75" y="189" width="430.5" height="64.80000000000001" as="geometry" />
        </mxCell>
        <mxCell id="be9cKzh3v3ybvfWHn4TE-102" value="Movement pattern recognition" style="text;html=1;align=center;verticalAlign=middle;whiteSpace=wrap;rounded=0;rotation=-90;" parent="be9cKzh3v3ybvfWHn4TE-100" vertex="1">
          <mxGeometry x="-96.38999999999996" y="190.836" width="255.57000000000002" height="61.12800000000001" as="geometry" />
        </mxCell>
        <mxCell id="be9cKzh3v3ybvfWHn4TE-83" value="Processing pipeline" style="text;html=1;align=center;verticalAlign=middle;whiteSpace=wrap;rounded=0;" parent="be9cKzh3v3ybvfWHn4TE-103" vertex="1">
          <mxGeometry y="1.4210854715202004e-14" width="126" height="54" as="geometry" />
        </mxCell>
        <mxCell id="be9cKzh3v3ybvfWHn4TE-139" value="" style="endArrow=classic;html=1;rounded=0;exitX=0.5;exitY=0;exitDx=0;exitDy=0;entryX=0.5;entryY=1;entryDx=0;entryDy=0;" parent="be9cKzh3v3ybvfWHn4TE-103" source="be9cKzh3v3ybvfWHn4TE-89" target="be9cKzh3v3ybvfWHn4TE-96" edge="1">
          <mxGeometry width="50" height="50" relative="1" as="geometry">
            <mxPoint x="274" y="330" as="sourcePoint" />
            <mxPoint x="454" y="280" as="targetPoint" />
          </mxGeometry>
        </mxCell>
        <mxCell id="be9cKzh3v3ybvfWHn4TE-140" value="" style="endArrow=classic;html=1;rounded=0;exitX=0.5;exitY=0;exitDx=0;exitDy=0;entryX=0.5;entryY=1;entryDx=0;entryDy=0;" parent="be9cKzh3v3ybvfWHn4TE-103" edge="1">
          <mxGeometry width="50" height="50" relative="1" as="geometry">
            <mxPoint x="388.5" y="280.51" as="sourcePoint" />
            <mxPoint x="323.5" y="280.51" as="targetPoint" />
          </mxGeometry>
        </mxCell>
        <mxCell id="be9cKzh3v3ybvfWHn4TE-141" value="" style="endArrow=classic;html=1;rounded=0;exitX=0.5;exitY=0;exitDx=0;exitDy=0;entryX=0.5;entryY=1;entryDx=0;entryDy=0;" parent="be9cKzh3v3ybvfWHn4TE-103" edge="1">
          <mxGeometry width="50" height="50" relative="1" as="geometry">
            <mxPoint x="261.3499999999999" y="280.51" as="sourcePoint" />
            <mxPoint x="196.3499999999999" y="280.51" as="targetPoint" />
          </mxGeometry>
        </mxCell>
        <mxCell id="be9cKzh3v3ybvfWHn4TE-174" value="" style="group" parent="1" vertex="1" connectable="0">
          <mxGeometry x="-50" y="530" width="320" height="220" as="geometry" />
        </mxCell>
        <mxCell id="be9cKzh3v3ybvfWHn4TE-162" value="" style="rounded=0;whiteSpace=wrap;html=1;fillColor=#f5f5f5;strokeColor=#666666;fontColor=#333333;" parent="be9cKzh3v3ybvfWHn4TE-174" vertex="1">
          <mxGeometry width="320" height="220" as="geometry" />
        </mxCell>
        <mxCell id="be9cKzh3v3ybvfWHn4TE-161" value="" style="group" parent="be9cKzh3v3ybvfWHn4TE-174" vertex="1" connectable="0">
          <mxGeometry x="40" y="42.5" width="120" height="60" as="geometry" />
        </mxCell>
        <mxCell id="be9cKzh3v3ybvfWHn4TE-31" value="" style="rounded=0;whiteSpace=wrap;html=1;fillColor=#fff2cc;strokeColor=#d6b656;" parent="be9cKzh3v3ybvfWHn4TE-161" vertex="1">
          <mxGeometry width="120" height="60" as="geometry" />
        </mxCell>
        <mxCell id="be9cKzh3v3ybvfWHn4TE-32" value="Real-time visualization" style="text;html=1;align=center;verticalAlign=middle;whiteSpace=wrap;rounded=0;" parent="be9cKzh3v3ybvfWHn4TE-161" vertex="1">
          <mxGeometry x="30" y="15" width="60" height="30" as="geometry" />
        </mxCell>
        <mxCell id="be9cKzh3v3ybvfWHn4TE-33" value="&lt;font style=&quot;font-size: 9px;&quot;&gt;View&lt;/font&gt;" style="text;html=1;align=center;verticalAlign=middle;whiteSpace=wrap;rounded=0;fillColor=none;strokeColor=none;" parent="be9cKzh3v3ybvfWHn4TE-161" vertex="1">
          <mxGeometry width="40" height="10" as="geometry" />
        </mxCell>
        <mxCell id="be9cKzh3v3ybvfWHn4TE-163" value="Dashboard" style="text;html=1;align=center;verticalAlign=middle;whiteSpace=wrap;rounded=0;" parent="be9cKzh3v3ybvfWHn4TE-174" vertex="1">
          <mxGeometry width="90" height="30" as="geometry" />
        </mxCell>
        <mxCell id="be9cKzh3v3ybvfWHn4TE-165" value="" style="rounded=0;whiteSpace=wrap;html=1;fillColor=#fff2cc;strokeColor=#d6b656;" parent="be9cKzh3v3ybvfWHn4TE-174" vertex="1">
          <mxGeometry x="180" y="85" width="120" height="60" as="geometry" />
        </mxCell>
        <mxCell id="be9cKzh3v3ybvfWHn4TE-166" value="Analytics view" style="text;html=1;align=center;verticalAlign=middle;whiteSpace=wrap;rounded=0;" parent="be9cKzh3v3ybvfWHn4TE-174" vertex="1">
          <mxGeometry x="210" y="100" width="60" height="30" as="geometry" />
        </mxCell>
        <mxCell id="be9cKzh3v3ybvfWHn4TE-167" value="&lt;font style=&quot;font-size: 9px;&quot;&gt;View&lt;/font&gt;" style="text;html=1;align=center;verticalAlign=middle;whiteSpace=wrap;rounded=0;fillColor=none;strokeColor=none;" parent="be9cKzh3v3ybvfWHn4TE-174" vertex="1">
          <mxGeometry x="180" y="85" width="40" height="10" as="geometry" />
        </mxCell>
        <mxCell id="be9cKzh3v3ybvfWHn4TE-168" value="" style="rounded=0;whiteSpace=wrap;html=1;fillColor=#fff2cc;strokeColor=#d6b656;" parent="be9cKzh3v3ybvfWHn4TE-174" vertex="1">
          <mxGeometry x="40" y="135" width="120" height="60" as="geometry" />
        </mxCell>
        <mxCell id="be9cKzh3v3ybvfWHn4TE-169" value="Management view" style="text;html=1;align=center;verticalAlign=middle;whiteSpace=wrap;rounded=0;" parent="be9cKzh3v3ybvfWHn4TE-174" vertex="1">
          <mxGeometry x="70" y="150" width="60" height="30" as="geometry" />
        </mxCell>
        <mxCell id="be9cKzh3v3ybvfWHn4TE-170" value="&lt;font style=&quot;font-size: 9px;&quot;&gt;View&lt;/font&gt;" style="text;html=1;align=center;verticalAlign=middle;whiteSpace=wrap;rounded=0;fillColor=none;strokeColor=none;" parent="be9cKzh3v3ybvfWHn4TE-174" vertex="1">
          <mxGeometry x="40" y="135" width="40" height="10" as="geometry" />
        </mxCell>
        <mxCell id="be9cKzh3v3ybvfWHn4TE-175" value="" style="group" parent="1" vertex="1" connectable="0">
          <mxGeometry x="-50" y="257.5" width="320" height="220" as="geometry" />
        </mxCell>
        <mxCell id="be9cKzh3v3ybvfWHn4TE-176" value="" style="rounded=0;whiteSpace=wrap;html=1;fillColor=#f5f5f5;strokeColor=#666666;fontColor=#333333;" parent="be9cKzh3v3ybvfWHn4TE-175" vertex="1">
          <mxGeometry width="320" height="220" as="geometry" />
        </mxCell>
        <mxCell id="be9cKzh3v3ybvfWHn4TE-177" value="" style="group" parent="be9cKzh3v3ybvfWHn4TE-175" vertex="1" connectable="0">
          <mxGeometry x="40" y="42.5" width="120" height="60" as="geometry" />
        </mxCell>
        <mxCell id="be9cKzh3v3ybvfWHn4TE-178" value="" style="rounded=0;whiteSpace=wrap;html=1;fillColor=#fff2cc;strokeColor=#d6b656;" parent="be9cKzh3v3ybvfWHn4TE-177" vertex="1">
          <mxGeometry width="120" height="60" as="geometry" />
        </mxCell>
        <mxCell id="be9cKzh3v3ybvfWHn4TE-179" value="System monitoring" style="text;html=1;align=center;verticalAlign=middle;whiteSpace=wrap;rounded=0;" parent="be9cKzh3v3ybvfWHn4TE-177" vertex="1">
          <mxGeometry x="30" y="15" width="60" height="30" as="geometry" />
        </mxCell>
        <mxCell id="be9cKzh3v3ybvfWHn4TE-180" value="&lt;font style=&quot;font-size: 9px;&quot;&gt;View&lt;/font&gt;" style="text;html=1;align=center;verticalAlign=middle;whiteSpace=wrap;rounded=0;fillColor=none;strokeColor=none;" parent="be9cKzh3v3ybvfWHn4TE-177" vertex="1">
          <mxGeometry width="40" height="10" as="geometry" />
        </mxCell>
        <mxCell id="be9cKzh3v3ybvfWHn4TE-181" value="Admin portal" style="text;html=1;align=center;verticalAlign=middle;whiteSpace=wrap;rounded=0;" parent="be9cKzh3v3ybvfWHn4TE-175" vertex="1">
          <mxGeometry width="90" height="30" as="geometry" />
        </mxCell>
        <mxCell id="be9cKzh3v3ybvfWHn4TE-182" value="" style="rounded=0;whiteSpace=wrap;html=1;fillColor=#fff2cc;strokeColor=#d6b656;" parent="be9cKzh3v3ybvfWHn4TE-175" vertex="1">
          <mxGeometry x="180" y="85" width="120" height="60" as="geometry" />
        </mxCell>
        <mxCell id="be9cKzh3v3ybvfWHn4TE-183" value="Data export" style="text;html=1;align=center;verticalAlign=middle;whiteSpace=wrap;rounded=0;" parent="be9cKzh3v3ybvfWHn4TE-175" vertex="1">
          <mxGeometry x="210" y="100" width="60" height="30" as="geometry" />
        </mxCell>
        <mxCell id="be9cKzh3v3ybvfWHn4TE-184" value="&lt;font style=&quot;font-size: 9px;&quot;&gt;View&lt;/font&gt;" style="text;html=1;align=center;verticalAlign=middle;whiteSpace=wrap;rounded=0;fillColor=none;strokeColor=none;" parent="be9cKzh3v3ybvfWHn4TE-175" vertex="1">
          <mxGeometry x="180" y="85" width="40" height="10" as="geometry" />
        </mxCell>
        <mxCell id="be9cKzh3v3ybvfWHn4TE-185" value="" style="rounded=0;whiteSpace=wrap;html=1;fillColor=#fff2cc;strokeColor=#d6b656;" parent="be9cKzh3v3ybvfWHn4TE-175" vertex="1">
          <mxGeometry x="40" y="135" width="120" height="60" as="geometry" />
        </mxCell>
        <mxCell id="be9cKzh3v3ybvfWHn4TE-186" value="Multi-user management" style="text;html=1;align=center;verticalAlign=middle;whiteSpace=wrap;rounded=0;" parent="be9cKzh3v3ybvfWHn4TE-175" vertex="1">
          <mxGeometry x="70" y="150" width="60" height="30" as="geometry" />
        </mxCell>
        <mxCell id="be9cKzh3v3ybvfWHn4TE-187" value="&lt;font style=&quot;font-size: 9px;&quot;&gt;View&lt;/font&gt;" style="text;html=1;align=center;verticalAlign=middle;whiteSpace=wrap;rounded=0;fillColor=none;strokeColor=none;" parent="be9cKzh3v3ybvfWHn4TE-175" vertex="1">
          <mxGeometry x="40" y="135" width="40" height="10" as="geometry" />
        </mxCell>
        <mxCell id="be9cKzh3v3ybvfWHn4TE-189" value="" style="endArrow=classic;html=1;rounded=0;entryX=0.009;entryY=0.234;entryDx=0;entryDy=0;entryPerimeter=0;" parent="1" source="be9cKzh3v3ybvfWHn4TE-24" target="be9cKzh3v3ybvfWHn4TE-1" edge="1">
          <mxGeometry width="50" height="50" relative="1" as="geometry">
            <mxPoint x="-130" y="510" as="sourcePoint" />
            <mxPoint x="-80" y="460" as="targetPoint" />
          </mxGeometry>
        </mxCell>
        <mxCell id="be9cKzh3v3ybvfWHn4TE-190" value="" style="endArrow=classic;html=1;rounded=0;entryX=0.009;entryY=0.234;entryDx=0;entryDy=0;entryPerimeter=0;" parent="1" edge="1">
          <mxGeometry width="50" height="50" relative="1" as="geometry">
            <mxPoint x="-163" y="645" as="sourcePoint" />
            <mxPoint x="-60" y="646" as="targetPoint" />
          </mxGeometry>
        </mxCell>
        <mxCell id="cosI2YoFCvBsnNAfuXDV-1" value="" style="shape=cylinder3;whiteSpace=wrap;html=1;boundedLbl=1;backgroundOutline=1;size=15;" vertex="1" parent="1">
          <mxGeometry x="890" y="1230" width="160" height="90" as="geometry" />
        </mxCell>
        <mxCell id="cosI2YoFCvBsnNAfuXDV-2" value="document-oriented DB" style="text;html=1;align=center;verticalAlign=middle;whiteSpace=wrap;rounded=0;" vertex="1" parent="1">
          <mxGeometry x="910" y="1265" width="120" height="40" as="geometry" />
        </mxCell>
        <mxCell id="cosI2YoFCvBsnNAfuXDV-3" value="" style="endArrow=classic;startArrow=classic;html=1;rounded=0;entryX=0.5;entryY=1;entryDx=0;entryDy=0;exitX=0.5;exitY=0;exitDx=0;exitDy=0;exitPerimeter=0;" edge="1" parent="1" source="cosI2YoFCvBsnNAfuXDV-1">
          <mxGeometry width="50" height="50" relative="1" as="geometry">
            <mxPoint x="1055" y="1110" as="sourcePoint" />
            <mxPoint x="970" y="1060" as="targetPoint" />
          </mxGeometry>
        </mxCell>
        <mxCell id="cosI2YoFCvBsnNAfuXDV-4" value="" style="rounded=0;whiteSpace=wrap;html=1;fillColor=#dae8fc;strokeColor=#6c8ebf;" vertex="1" parent="1">
          <mxGeometry x="2390" y="484.38" width="120" height="60" as="geometry" />
        </mxCell>
        <mxCell id="cosI2YoFCvBsnNAfuXDV-5" value="Sensor data aggregation" style="text;html=1;align=center;verticalAlign=middle;whiteSpace=wrap;rounded=0;" vertex="1" parent="1">
          <mxGeometry x="2390" y="484.38" width="120" height="61.6" as="geometry" />
        </mxCell>
        <mxCell id="cosI2YoFCvBsnNAfuXDV-6" value="" style="rounded=0;whiteSpace=wrap;html=1;fillColor=#dae8fc;strokeColor=#6c8ebf;" vertex="1" parent="1">
          <mxGeometry x="2610" y="484.38" width="120" height="60" as="geometry" />
        </mxCell>
        <mxCell id="cosI2YoFCvBsnNAfuXDV-7" value="Sensor configuration&lt;div&gt;(ssh)&lt;/div&gt;" style="text;html=1;align=center;verticalAlign=middle;whiteSpace=wrap;rounded=0;" vertex="1" parent="1">
          <mxGeometry x="2610" y="484.38" width="120" height="61.6" as="geometry" />
        </mxCell>
      </root>
    </mxGraphModel>
  </diagram>
</mxfile>
